<svg width="512" height="512" viewBox="0 0 512 512" fill="none" xmlns="http://www.w3.org/2000/svg">
  <rect width="512" height="512" rx="112" fill="#020C2C"/>
  <path d="M140 122c0-18 14-32 32-32h42v247h160c18 0 32 14 32 32v21c0 18-14 32-32 32H222c-45 0-82-37-82-82V122z" fill="url(#g)"/>
  <rect x="218" y="141" width="122" height="78" rx="14" fill="#FFFEFA"/>
  <rect x="235" y="158" width="88" height="44" rx="8" fill="#24302B"/>
  <rect x="258" y="172" width="43" height="11" rx="5.5" fill="#16A36B"/>
  <rect x="244" y="234" width="70" height="20" rx="6" fill="#FFFEFA"/>
  <rect x="197" y="255" width="164" height="29" rx="8" fill="#FFFEFA"/>
  <rect x="220" y="286" width="118" height="80" rx="10" fill="#FFFEFA"/>
  <defs>
    <linearGradient id="g" x1="132" y1="88" x2="365" y2="424" gradientUnits="userSpaceOnUse">
      <stop stop-color="#21BD7B"/>
      <stop offset="0.55" stop-color="#16A36B"/>
      <stop offset="1" stop-color="#0C744F"/>
    </linearGradient>
  </defs>
</svg>
